<?xml version="1.0" encoding="UTF-8" standalone="no"?>
<!DOCTYPE svg PUBLIC "-//W3C//DTD SVG 1.1//EN" "http://www.w3.org/Graphics/SVG/1.1/DTD/svg11.dtd">
<svg width="16px" height="16px" version="1.1" xmlns="http://www.w3.org/2000/svg" xmlns:xlink="http://www.w3.org/1999/xlink" xml:space="preserve" xmlns:serif="http://www.serif.com/" style="fill-rule:evenodd;clip-rule:evenodd;stroke-linejoin:round;stroke-miterlimit:2;">
    <rect id="Artboard1" x="0" y="0" width="16" height="16" style="fill:none;"/>
    <g id="Artboard11" serif:id="Artboard1">
        <g transform="matrix(0.857143,0,0,1,-1.5,-3)">
            <rect x="3.5" y="11.5" width="7" height="6" style="fill-opacity:0.4;"/>
        </g>
        <path d="M1.002,14.06C1.001,14.04 1,14.02 1,14L1,2C1,1.448 1.448,1 2,1L14,1C14.552,1 15,1.448 15,2L15,14C15,14.552 14.552,15 14,15L2,15L1.5,14.998C1.368,14.998 1.241,14.946 1.148,14.852C1.054,14.759 1.002,14.632 1.002,14.5L1.002,14.06ZM2,14L7.002,14L7.002,8.998L2,8.998L2,14ZM7.998,8.712L7.998,14L14,14L14,2L2,2L2,8.002L7.294,8.002L10.172,5.124L8.047,2.999L12.999,3.001L13,7.953L10.879,5.831L7.998,8.712Z"/>
    </g>
</svg>
